<svg xmlns="http://www.w3.org/2000/svg"  viewBox="0 0 50 50" width="50px" height="50px"><path d="M17.35,38.94c-0.31,0.11-0.65,0.07-0.92-0.12S16,38.33,16,38V19.17l-5-1.76v29.31l13-4.34v-5.93L17.35,38.94z M26,14.39 v5.47l8.67-3.04l5-1.76c0.3-0.11,0.64-0.06,0.91,0.12C40.84,15.37,41,15.68,41,16v30.73l5.24-1.68c0.41-0.13,0.69-0.52,0.69-0.95 V7.71L26,14.39z M38.35,3.06c-0.22-0.08-0.45-0.08-0.67-0.01L25.12,7.32l-12.8-4.27c-0.22-0.07-0.46-0.07-0.67,0.01L4.03,5.92 L25,12.61l20.97-6.69L38.35,3.06z M3.07,7.71V44.1c0,0.43,0.28,0.82,0.69,0.95L9,46.73V16c0-0.22,0.07-0.42,0.2-0.59 c0.02-0.03,0.05-0.07,0.07-0.1c0.06-0.05,0.11-0.1,0.17-0.14c0.06-0.03,0.11-0.07,0.17-0.09c0.06-0.03,0.12-0.05,0.19-0.06 C9.86,15.01,9.93,15,10,15c0.06,0,0.11,0,0.16,0.02c0.06,0,0.11,0.02,0.16,0.04c0.03,0,0.05,0.01,0.08,0.02L24,19.86v-5.47 L3.07,7.71z M35.33,18.7c-0.01,0-0.02,0.01-0.03,0.01L34,19.17V38c0,0.33-0.16,0.63-0.43,0.82C33.4,38.94,33.2,39,33,39 c-0.12,0-0.24-0.02-0.35-0.06L26,36.45v5.93l13,4.34V17.41L35.33,18.7z M25.32,29.05c-0.21-0.07-0.43-0.07-0.64,0L18,31.29v5.27 l6.65-2.5c0.23-0.08,0.47-0.08,0.7,0l6.65,2.5v-5.28L25.32,29.05z"/></svg>